<svg width="60" height="60" viewBox="0 0 60 60" fill="none" xmlns="http://www.w3.org/2000/svg">
<circle cx="30" cy="30" r="29" fill="#DC7000" stroke="#DC7000" stroke-width="2"/>
<path d="M21.25 31.25L36.075 31.25L31.5375 36.7C31.3253 36.9553 31.2232 37.2844 31.2537 37.6149C31.2842 37.9455 31.4447 38.2503 31.7 38.4625C31.9553 38.6747 32.2844 38.7768 32.6149 38.7463C32.9454 38.7158 33.2503 38.5553 33.4625 38.3L39.7125 30.8C39.7545 30.7404 39.7922 30.6777 39.825 30.6125C39.825 30.55 39.825 30.5125 39.9125 30.45C39.9692 30.3067 39.9988 30.1541 40 30C39.9988 29.8459 39.9692 29.6933 39.9125 29.55C39.9125 29.4875 39.9125 29.45 39.825 29.3875C39.7922 29.3223 39.7545 29.2597 39.7125 29.2L33.4625 21.7C33.345 21.5589 33.1978 21.4454 33.0314 21.3677C32.8651 21.2899 32.6836 21.2497 32.5 21.25C32.2079 21.2495 31.9249 21.3512 31.7 21.5375C31.5734 21.6425 31.4688 21.7713 31.3921 21.9168C31.3154 22.0622 31.2682 22.2213 31.2531 22.3851C31.238 22.5488 31.2553 22.7139 31.3041 22.8709C31.3529 23.0279 31.4322 23.1737 31.5375 23.3L36.075 28.75H21.25C20.9185 28.75 20.6005 28.8817 20.3661 29.1161C20.1317 29.3506 20 29.6685 20 30C20 30.3315 20.1317 30.6495 20.3661 30.8839C20.6005 31.1183 20.9185 31.25 21.25 31.25Z" fill="white"/>
</svg>
